<svg width="1000" height="1000" viewBox="0 0 1000 1000" fill="none" xmlns="http://www.w3.org/2000/svg">
<g clip-path="url(#clip0_102_15002)">
<path d="M434.333 723.167C434.333 723.167 343.833 723.167 314.167 723.167C284.5 723.167 278.833 730.167 291.333 735.333C303.833 740.5 244 738 233.833 747.166C223.5 756.333 249.833 759.833 278.333 759.833C306.833 759.833 484.5 759.833 507.333 759.833C530.167 759.833 524.5 743.167 510.833 741C497.167 738.833 533 741.833 546.667 737C560.333 732.167 550.5 723.167 434.333 723.167Z" fill="#99ADF9"/>
<path d="M609.667 753.667C606.167 758.5 594.5 759.667 574.667 759.167C559.667 758.667 544 757.5 544 750.5C544 743.5 582.167 744.333 595.5 745.833C607 747.167 611.667 750.833 609.667 753.667Z" fill="#C5D3FF"/>
<path d="M264.333 730.333C262 733.833 254 734.833 240 734.833C229.5 734.833 218.5 734.333 218.167 729.5C217.833 724.5 244.667 724.333 254.167 725.167C262.167 725.833 265.667 728.167 264.333 730.333Z" fill="#C5D3FF"/>
<path d="M851.167 719H791.667C787 719 783.167 715.167 783.167 710.5V649C783.167 644.333 787 640.5 791.667 640.5H851.167C855.833 640.5 859.667 644.333 859.667 649V710.5C859.667 715.167 855.833 719 851.167 719Z" fill="#C5DFFF"/>
<path d="M848.333 716.167H791.167C786.667 716.167 783 712.5 783 708V648.667C783 644.167 786.667 640.5 791.167 640.5H848.333C852.833 640.5 856.5 644.167 856.5 648.667V708C856.5 712.5 852.833 716.167 848.333 716.167Z" fill="#E1ECFF"/>
<path d="M820.333 703C833.588 703 844.333 692.255 844.333 679C844.333 665.745 833.588 655 820.333 655C807.078 655 796.333 665.745 796.333 679C796.333 692.255 807.078 703 820.333 703Z" fill="#C5DFFF"/>
<path d="M810.833 689.833C810 689.833 809.333 689.167 809.333 688.333V669.833C809.333 669 810 668.333 810.833 668.333C811.667 668.333 812.333 669 812.333 669.833V688.333C812.333 689.167 811.667 689.833 810.833 689.833Z" fill="#1C3177"/>
<path d="M828.166 689.833C827.333 689.833 826.667 689.167 826.667 688.333V669.833C826.667 669 827.333 668.333 828.166 668.333C829 668.333 829.666 669 829.666 669.833V688.333C829.666 689.167 829 689.833 828.166 689.833Z" fill="#1C3177"/>
<path d="M675 615C673.833 615 672.667 615 671.5 614.833C645.667 613 628 604.167 598.333 559C588 543.333 581 527.333 574.167 511.833C562.5 485.333 552.5 462.333 529.833 451.667C495 435.333 460.833 462.333 460.5 462.667C459 463.833 456.833 463.667 455.667 462.167C454.5 460.667 454.667 458.5 456.167 457.333C457.667 456.167 494 427.333 532.667 445.5C557.667 457.167 568.667 482.333 580.333 509C587 524.333 594 540.167 604 555.167C632.167 597.833 648.333 606.167 672 608C689.667 609.333 699.167 598.667 708.333 588.167C711.667 584.5 714.667 581 718.167 578C731.667 566.5 745.833 564.333 746.5 564.333C748.333 564 750.167 565.333 750.333 567.167C750.667 569 749.333 570.833 747.5 571C747.333 571 734.667 573 722.667 583.167C719.5 585.833 716.667 589.167 713.5 592.667C704.167 603.333 693.833 615 675 615Z" fill="#1C3177"/>
<path d="M772 552.833L786 541C787.5 539.833 789.5 540 790.667 541.5C791.667 542.833 791.5 544.667 790.167 545.833L776 558.333L772 552.833Z" fill="#1C3177"/>
<path d="M763.333 542.833L777.333 531C778.833 529.833 780.833 530 782 531.5C783 532.833 782.833 534.667 781.5 535.833L767.333 548.333L763.333 542.833Z" fill="#1C3177"/>
<path d="M781.833 559C781.833 559 776.333 565.5 767.833 573C759.333 580.333 748.333 579 743.333 573.333C743 573 742.833 572.667 742.5 572.333C738.167 566.333 738 558.167 744.5 552.333C751.333 546 762.667 537 762.667 537L776.333 552.833L781.833 559Z" fill="#E1ECFF"/>
<path d="M781.833 559C781.833 559 776.333 565.5 767.833 573C759.333 580.333 748.333 579 743.333 573.333C743 573 742.833 572.667 742.5 572.333C746.5 572.333 753.333 571.5 759.5 567.333C764.667 563.833 771.333 557.667 776.167 552.833L781.833 559Z" fill="#C5DFFF"/>
<path d="M526.833 686.667C526.667 686.667 526.333 686.667 526.167 686.667C514.833 686.5 485.333 664.333 477.833 654C470.167 643.667 463.333 630.5 472.667 622C474.5 620.333 477.167 619.167 480.167 618.667C484.667 617.833 490.167 618.833 494.833 621.833C502.833 627 525.333 653.167 531.667 664.333C537.833 675.333 537.667 686.5 526.833 686.667Z" fill="#1C3177"/>
<path d="M526.833 686.667C528.5 685.667 529.666 684 530.666 680.667C532.333 674.833 526.5 663.167 507.333 640.833C495.833 627.333 486 621.333 480.167 618.667C484.667 617.833 490.166 618.833 494.833 621.833C502.833 627 525.333 653.167 531.666 664.333C537.833 675.333 537.667 686.5 526.833 686.667Z" fill="#384D89"/>
<path d="M470.5 629.167C472.166 624.5 481.833 625.333 490.166 633.5C498.5 641.667 511.166 657.833 508 664.833C504.833 671.833 492.833 666.167 483 656.5C473.166 646.833 467.833 636.667 470.5 629.167Z" fill="#142966"/>
<path d="M491.5 650C491.167 655.333 489.167 658.667 489.167 658.667C489.167 658.667 444.333 680 388.167 640.833C331 601 330.833 551.333 330.833 550.833C360.167 522.167 393.167 553.667 393.167 553.667C393.167 553.667 395.167 571.5 404.167 589.5C409.333 599.833 416.833 610.333 427.5 617.333C454.167 634.833 481.833 629.5 481.833 629.5C481.833 629.5 487.167 631.167 490.333 641.333C491.5 644.333 491.833 647.5 491.5 650Z" fill="#E1ECFF"/>
<path d="M491.5 650C491.167 655.333 489.167 658.667 489.167 658.667C489.167 658.667 444.333 680 388.167 640.833C331 601 330.833 551.333 330.833 550.833C360.167 522.167 393.167 553.667 393.167 553.667C393.167 553.667 395.167 571.5 404.167 589.5C399.667 592.833 394 596.333 389.667 597.667C380.5 600.333 370.667 600.333 370.667 600.333C370.667 600.333 398.833 642.5 440.5 650.167C463 654 480.333 652.333 491.5 650Z" fill="#C5DFFF"/>
<path d="M428.667 658.5C427.833 658.5 427 658 426.667 657C426.167 655.833 426.833 654.667 428 654.167C428.166 654.167 437.166 650.667 439.833 643.333C442.666 635.833 440.333 629.833 440.333 629.833C439.833 628.667 440.5 627.5 441.5 627C442.666 626.5 443.833 627.167 444.333 628.167C444.5 628.5 447.166 635.833 443.833 644.833C440.333 654.167 429.833 658 429.333 658.167C429.167 658.5 428.833 658.5 428.667 658.5Z" fill="#C5DFFF"/>
<path d="M390 641.333C388.833 641.333 387.833 640.5 387.833 639.333C387.833 638.167 388.667 637.167 389.833 637C390 637 401.667 636.167 407.5 628.5C413.333 620.833 413 613 413 612.833C412.833 611.667 413.833 610.5 415 610.5C416.167 610.333 417.333 611.333 417.333 612.5C417.333 612.833 418 622 411 631.167C403.833 640.333 390.667 641.167 390 641.333Z" fill="#C5DFFF"/>
<path d="M311 609.833C310.333 611.333 309.5 612.833 308.333 614.333C306.167 617.167 303.667 618.833 301.333 620C298 621.667 295.333 622 295.333 622C295.333 622 271.833 599.167 251.333 558.5C230.833 518 229.333 471.333 229.333 471.333C231.167 470.333 233 469.5 234.667 468.833C241 466.333 246.833 466.167 251.667 466.833C259 467.833 263.667 471 263.667 471C263.667 471 265 509.667 278.667 544.5C292.333 579.5 312.333 600.167 312.333 600.167C312.333 600.167 313.167 604.667 311 609.833Z" fill="#E1ECFF"/>
<path d="M311 609.833C303.667 603.333 289.667 588.5 276.167 559.833C260 525.5 253.5 481.333 251.833 466.833C259.167 467.833 263.833 471 263.833 471C263.833 471 265.167 509.667 278.833 544.5C292.5 579.5 312.5 600.167 312.5 600.167C312.5 600.167 313.167 604.667 311 609.833Z" fill="#F8FBFF"/>
<path d="M301.333 620C298 621.667 295.333 622 295.333 622C295.333 622 271.833 599.167 251.333 558.5C230.833 518 229.333 471.333 229.333 471.333C231.167 470.333 233 469.5 234.667 468.833C235.833 483.833 241.333 533.167 264.667 571.833C280.667 598.167 293.5 612.5 301.333 620Z" fill="#C5DFFF"/>
<path d="M347.833 644C347.833 644 339.167 649.167 329 646.833C318.833 644.5 315 641.167 315 641.167C315 641.167 311.667 636.167 314.167 633.333C314.333 633.167 314.333 633.167 314.5 633C317.667 630.167 322 629.667 322 629.667C322 629.667 328 634.333 332.333 635.833C336.667 637.333 344.333 635.833 347.167 637.667C348.5 638.5 348.667 640 348.5 641.333C348.5 642.833 347.833 644 347.833 644Z" fill="#E1ECFF"/>
<path d="M347.833 644C347.833 644 339.167 649.167 329 646.833C318.833 644.5 315 641.167 315 641.167C315 641.167 311.667 636.167 314.167 633.333C317.167 636.167 324.333 642.333 332.667 643.333C339.5 644.167 345.167 642.667 348.5 641.333C348.5 642.833 347.833 644 347.833 644Z" fill="#C5DFFF"/>
<path d="M344.667 639.333C336 640.667 329.833 638.333 325.167 635.833C320.5 633.333 318.667 630.167 318.667 630.167C318.667 630.167 318.667 626.333 321.167 624.333C322.5 623.167 324.667 622.667 328 623.667C328 623.667 334.5 629.333 345.333 625.5C356.167 621.667 355.5 619.333 357.833 618.667C359.5 618.167 361.667 620.667 362.167 623.5C362.5 624.833 362.333 626.167 361.833 627.333C360 631 353.333 637.833 344.667 639.333Z" fill="#E1ECFF"/>
<path d="M344.667 639.333C336 640.667 329.833 638.333 325.167 635.833C320.5 633.333 318.667 630.167 318.667 630.167C318.667 630.167 318.667 626.333 321.167 624.333C325.167 628.333 333.833 635.5 343.333 633.667C352.667 631.833 359.333 626.333 362.333 623.5C362.666 624.833 362.5 626.167 362 627.333C360 631 353.333 637.833 344.667 639.333Z" fill="#C5DFFF"/>
<path d="M342.833 628.333C334.5 629.667 328.667 627.333 324.333 625C319.833 622.667 318.167 619.667 318.167 619.667C318.167 619.667 318.167 616 320.5 614C321.833 612.833 323.833 612.333 327 613.333C327 613.333 333.167 618.667 343.5 615C353.833 611.333 353.167 609.167 355.333 608.5C356.833 608 359 610.5 359.5 613.167C359.833 614.333 359.667 615.667 359.167 616.833C357.333 620.5 351 627 342.833 628.333Z" fill="#E1ECFF"/>
<path d="M342.833 628.333C334.5 629.667 328.667 627.333 324.333 625C319.833 622.667 318.167 619.667 318.167 619.667C318.167 619.667 318.167 616 320.5 614C324.167 617.833 332.5 624.667 341.5 622.833C350.333 621 356.667 615.833 359.5 613.167C359.833 614.333 359.667 615.667 359.167 616.833C357.333 620.5 351 627 342.833 628.333Z" fill="#C5DFFF"/>
<path d="M341.667 620C334.5 622.333 328.833 621.167 324.667 619.667C320.333 618.167 318.5 615.833 318.5 615.833C318.5 615.833 318 612.5 320 610.5C321 609.333 322.833 608.667 325.833 609C325.833 609 332 612.833 340.833 608.333C349.667 603.667 348.833 601.833 350.667 600.833C352 600.167 354.167 602 355 604.333C355.333 605.333 355.5 606.5 355.167 607.667C353.833 611 348.833 617.667 341.667 620Z" fill="#E1ECFF"/>
<path d="M341.667 620C334.5 622.333 328.833 621.167 324.667 619.667C320.333 618.167 318.5 615.833 318.5 615.833C318.5 615.833 318 612.5 320 610.5C323.833 613.333 332 618.333 339.833 615.5C347.667 612.667 352.667 607.167 354.833 604.333C355.167 605.333 355.333 606.5 355 607.667C353.833 611 348.833 617.667 341.667 620Z" fill="#C5DFFF"/>
<path d="M335.833 612C335.833 612 335.333 614.833 334.167 618.667C332.833 623 330.833 628.333 327.833 632.5C326.5 634.167 325.167 635.667 323.833 636.833C319.333 641 315.167 641.833 315.167 641.833C315.167 641.833 302.333 629.5 298.667 625.333C295 621.333 292 617 292 617C292 617 291 612.333 292 607.333C292.5 604.667 293.5 601.833 295.5 599.667C296.5 598.667 297.667 597.833 298.667 597.167C304.167 594.333 310.5 596.5 310.5 596.5C310.5 596.5 322.833 604.167 328.333 607.167C333.833 610.167 335.833 612 335.833 612Z" fill="#E1ECFF"/>
<path d="M335.833 612C335.833 612 335.333 614.833 334.167 618.667C331.667 617.333 327.167 614.5 321.167 610.167C313.333 604.667 302.167 599 298.667 597.167C304.167 594.333 310.5 596.5 310.5 596.5C310.5 596.5 322.833 604.167 328.333 607.167C333.833 610.167 335.833 612 335.833 612Z" fill="#F8FBFF"/>
<path d="M323.833 636.667C319.333 640.667 315.167 641.667 315.167 641.667C315.167 641.667 302.333 629.167 298.667 625.167C295 621.167 292 616.833 292 616.833C292 616.833 291 612.167 292 607.167C297.167 613 311 628 320.667 634.333C321.833 635.333 323 636 323.833 636.667Z" fill="#C5DFFF"/>
<path d="M276.166 594C273.666 593.833 272.166 593 272 593C271 592.5 270.666 591.167 271.166 590.167C271.666 589.167 272.833 588.667 273.833 589.167C274 589.334 278.666 591.5 284.833 587.5C291 583.5 292 578.5 292 578.334C292.166 577.167 293.166 576.334 294.333 576.667C295.333 576.834 296.166 578 296 579.167C296 579.5 294.833 586.167 287 591.333C282.5 593.833 278.833 594.167 276.166 594Z" fill="#C5DFFF"/>
<path d="M258.333 560.5C254.833 560.167 252.5 559 252.333 559C251.333 558.5 251 557.167 251.5 556.167C252 555.167 253.167 554.667 254 555.167C254.167 555.334 260 558.167 267.667 554.667C275.167 551.334 276.5 546.5 276.5 546.167C276.833 545 277.833 544.334 278.833 544.667C279.833 545 280.5 546.167 280.167 547.334C280.167 547.667 278.333 554.334 269 558.667C264.833 560.5 261.167 560.834 258.333 560.5Z" fill="#C5DFFF"/>
<path d="M245.667 523C240.833 522.667 238.333 520.667 238.167 520.5C237.333 519.833 237.167 518.5 237.833 517.5C238.5 516.5 239.667 516.333 240.667 517.167C240.833 517.167 244.5 520 252.667 518.333C263 516.167 265.833 512.167 266 512C266.667 511 267.833 510.833 268.833 511.5C269.667 512.167 269.833 513.5 269.167 514.5C268.833 515 265.167 519.833 253.5 522.5C250.333 523.167 247.833 523.167 245.667 523Z" fill="#C5DFFF"/>
<path d="M270.333 495.167C270.333 495.167 260.333 500.333 246.167 500.167C239.167 500 234.333 498.667 231.167 497.167C227.833 495.667 226.333 494.167 226.333 494.167C226.333 494.167 226.5 491.167 226 481.333C224.333 450.333 238.333 446.333 247.5 446C249.667 446 252 446.333 254 447C260.667 449.333 266.333 455.333 268.5 462.667C271.333 472.833 270.333 495.167 270.333 495.167Z" fill="#1C3177"/>
<path d="M249.833 465.167C239.333 470.833 235 467.167 235 467.167C235 467.167 232.5 475.667 231.333 492.5C231.167 494.167 231.167 495.833 231 497.167C227.667 495.667 226.167 494.167 226.167 494.167C226.167 494.167 226.333 491.167 225.833 481.333C224.167 450.333 238.167 446.333 247.333 446C249.5 446 251.833 446.333 253.833 447C256.5 451.5 259.5 460 249.833 465.167Z" fill="#384D89"/>
<path d="M462.667 517.167C462.167 519.833 461.667 522.333 461 524.833C457 540.333 450 552.833 440.167 561C412 584.5 373.333 597 323.667 564.833C284 539.167 247.5 481 234.333 458.5C231 452.833 229.167 449.333 229.167 449.333C229.167 449.333 252 448.167 288 431.667C302.833 424.833 320 415.333 338.833 402.333C371.333 379.667 390.167 358.5 401 342C413.833 322.667 415.667 310 415.667 310C415.667 310 418.833 315.833 424.333 328.667C431 344.5 441 370.833 452.333 409.833C464.5 451.833 467.833 489 462.667 517.167Z" fill="#E1ECFF"/>
<path d="M424.333 328.667C420.5 336.333 415.167 345.333 408.167 355.167C394.5 373.833 374.167 395.333 344.167 414.667C325.667 426.667 309.167 435.333 294.667 441.667C265 454.833 244.5 457.833 234.167 458.333C230.833 452.667 229 449.167 229 449.167C229 449.167 251.833 448 287.833 431.5C302.667 424.667 319.833 415.167 338.667 402.167C371.167 379.5 390 358.333 400.833 341.833C413.667 322.5 415.5 309.833 415.5 309.833C415.5 309.833 419 316 424.333 328.667Z" fill="#1C3177"/>
<path d="M461 524.833C457 540.333 450 552.833 440.167 561C412 584.5 373.333 597 323.667 564.833C284 539.166 247.5 481 234.333 458.5C231 452.833 229.167 449.333 229.167 449.333C229.167 449.333 252 448.167 288 431.667C302.167 453.667 333.5 499.167 364.333 526C400.167 557.333 441 538.833 461 524.833Z" fill="#C5DFFF"/>
<path d="M294.667 441.833C265 455 244.5 458 234.167 458.5C230.833 452.833 229 449.333 229 449.333C229 449.333 251.833 448.167 287.833 431.667C289.833 434.667 292.167 438.167 294.667 441.833Z" fill="#142966"/>
<path d="M458 501C453.833 483.833 448.167 462.167 441 439.167C429.5 401.833 416.5 373 409.333 360.5C419.333 345.333 421.167 339.167 421.167 339.167C421.167 339.167 423.667 343.833 428 353.833C433.167 366.167 441 386.833 449.833 417.333C459.5 450 462.167 479 458 501Z" fill="#F8FBFF"/>
<path d="M424.333 328.667C420.5 336.333 415.167 345.333 408.167 355.167C405.5 350 403.167 345.5 401 341.833C413.833 322.5 415.667 309.833 415.667 309.833C415.667 309.833 419 316 424.333 328.667Z" fill="#384D89"/>
<path d="M372.167 515C372.167 515 357.167 526.333 326.667 539C318.167 542.5 309.833 545.5 302.333 548C301.667 547.333 301 546.667 300.333 546C279 525.5 259.833 499 246.833 479C246 477.833 245.333 476.667 244.667 475.667C246 475.333 268.333 469.667 295.5 457.5C323.667 445 330.833 439.333 330.833 439.333L372.167 515Z" fill="#E1ECFF"/>
<path d="M367.5 514.833C367.5 514.833 354 525.667 325.333 537C316.5 540.5 307.667 543.5 300.167 546C278.833 525.5 259.667 499 246.667 479L249.333 478.333C249.333 478.333 270.333 473 296.333 461.5C322.333 449.833 329.667 446 329.667 446L367.5 514.833Z" fill="#1C3177"/>
<path d="M293.167 521.333C292.667 521.333 292 521.167 291.667 520.833L273.333 504.5L272.167 508C271.667 509.167 270.5 509.833 269.333 509.333C268.167 508.833 267.5 507.667 268 506.5L270.333 499.833C270.667 499.167 271.167 498.5 271.833 498.333C272.5 498.167 273.333 498.333 274 498.833L290.167 513.167L289.333 506.667C289.167 505.667 289.667 504.667 290.667 504.333L345.833 480.5C347 480 348.333 480.5 348.833 481.667C349.333 482.833 348.833 484.167 347.667 484.667L294 507.833L295.5 518.667C295.667 519.667 295.167 520.5 294.333 521C293.833 521.167 293.5 521.333 293.167 521.333Z" fill="#FFCE94"/>
<path d="M415.667 310C415.667 310 413.167 327.833 394 352.667C383 367 366.333 383.667 341.333 400.667C300.333 428.667 268 440.5 248.667 445.667C236 449 229 449.333 229 449.333C229 449.333 187.167 378 194 313.333C195.833 296.5 201 282.5 208.833 271C214.5 262.5 221.5 255.5 229.5 249.667C252.667 233 283.833 227.167 314.167 230.833C369.5 237.667 415.667 310 415.667 310Z" fill="#FEC272"/>
<path d="M415.667 310C415.667 310 414.5 318 408.167 330.667C405 337 400.5 344.5 394 352.833C383 367.167 366.333 383.833 341.333 400.833C297.167 430.833 263 442.333 244.5 446.833C234.5 449.167 229 449.5 229 449.5C229 449 229.167 410.667 291.5 362C354.167 312.833 415.667 310 415.667 310Z" fill="#FCAD4F"/>
<path d="M408.167 330.667C405 337 400.5 344.5 394 352.833C383 367.167 366.333 383.833 341.333 400.833C297.167 430.833 263 442.333 244.5 446.833C251.5 430.833 266.833 407.167 301.333 380.167C343.667 347 385.5 335 408.167 330.667Z" fill="#F99D3A"/>
<path d="M415.667 310C415.667 310 413.167 327.833 394 352.667C383.333 334.333 373.833 322.833 373.833 322.833C373.833 322.833 349.333 345 329.333 329.167C309.333 313.167 324.333 283.833 324.333 283.833C324.333 283.833 304.167 262.167 271.333 255.167C255 251.667 240.167 250.167 229.333 249.667C252.5 233 283.667 227.167 314 230.833C369.5 237.667 415.667 310 415.667 310Z" fill="#FFDBB3"/>
<path d="M248.833 445.667C236.167 449 229.167 449.333 229.167 449.333C229.167 449.333 187.333 378 194.167 313.333C196 296.5 201.167 282.5 209 271C207.167 290.167 205.667 334.5 221 382.333C228.667 406.667 239 428.333 248.833 445.667Z" fill="#FFDBB3"/>
<path d="M439.167 736C439.167 737 439.167 738 439 739.166C438.333 749 408.167 750.833 387.167 751.833C366.5 752.833 344.667 747 352.167 740.166C352.333 740 352.333 740 352.5 739.833C357.833 735.333 368.167 730.166 379.667 726C386.333 723.5 393.167 721.5 400 719.833C409 717.666 427.333 713.333 433.333 717.833C434.5 718.667 435.5 720 436.333 721.5C438.166 725 439.167 730.166 439.167 736Z" fill="#1C3177"/>
<path d="M439.167 736C439.167 737 439.167 738 439 739.166C438.333 749 408.167 750.833 387.167 751.833C366.5 752.833 344.667 747 352.167 740.166C356.667 742.833 366.5 746 387 745.166C415 744 432 739.333 439.167 736Z" fill="#384D89"/>
<path d="M436.167 721.5C434.833 722.833 432.667 724.166 430.167 725.5C422.167 729.5 397.833 733.833 383 731.333C376.5 730.166 377 728.166 379.5 726C386.167 723.5 393 721.5 399.833 719.833C408.833 717.666 427.167 713.333 433.167 717.833C434.333 718.667 435.333 720 436.167 721.5Z" fill="#142966"/>
<path d="M398.667 641.5C405.333 684.167 429.667 716.833 429.667 716.833C429.667 716.833 427.333 720.167 422.667 723.167C420.667 724.5 418.333 725.5 415.5 726.5C411.167 727.833 406.5 727.833 402.5 727.5C397.667 727 394.167 726 394.167 726C394.167 726 352.667 672.5 347.5 611.5C342.333 550.5 375.167 519.833 375.167 519.833C375.167 519.833 375.5 519.667 375.833 519.333C379.167 517.167 393.833 509.167 411.5 519.167C412.833 519.833 414 520.667 415 521.333C428.5 530.167 430.5 539.167 430.5 539.167C430.5 539.167 421.333 547.167 414.5 559.167C407.667 570.833 392 598.833 398.667 641.5Z" fill="#E1ECFF"/>
<path d="M398.667 641.5C405.333 684.167 429.667 716.833 429.667 716.833C429.667 716.833 427.333 720.167 422.667 723.167C410.5 706.333 381.333 655.333 382.333 606.833C383.167 562.5 406.167 531.667 415.167 521.333C428.667 530.167 430.667 539.167 430.667 539.167C430.667 539.167 421.5 547.167 414.667 559.167C407.667 570.833 392 598.833 398.667 641.5Z" fill="#C5DFFF"/>
<path d="M402.333 727.333C397.5 726.833 394 725.833 394 725.833C394 725.833 352.5 672.333 347.333 611.333C342.167 550.333 375 519.666 375 519.666C375 519.666 375.333 519.5 375.667 519.167C369.333 532.167 355.167 565.833 356.5 603.833C358.167 652.666 379.333 690.333 394.167 714.333C397 719.167 399.833 723.5 402.333 727.333Z" fill="#F8FBFF"/>
<path d="M370.667 684C370.167 684 369.5 683.833 369.167 683.333C368.333 682.5 368.167 681 369 680.167C369.167 680 374 675 383.667 672C393.5 669 404.333 672.333 404.833 672.5C406 672.833 406.667 674.167 406.333 675.333C406 676.5 404.667 677.167 403.5 676.833C403.333 676.833 393.5 673.833 385 676.333C376.5 679 372.333 683.167 372.333 683.333C372 683.833 371.333 684 370.667 684Z" fill="#C5DFFF"/>
<path d="M353.5 630.667C352.667 630.667 352 630.333 351.5 629.5C350.833 628.333 351.167 627 352.333 626.333C352.667 626.167 362.5 620.5 373.667 620C385 619.333 394.5 625.833 394.833 626.167C395.833 626.833 396.167 628.333 395.333 629.333C394.667 630.333 393.167 630.667 392.167 629.833C392 629.833 383.667 624 373.833 624.5C363.667 625 354.667 630.167 354.5 630.333C354.333 630.667 353.833 630.667 353.5 630.667Z" fill="#C5DFFF"/>
<path d="M399.167 586.667C398.667 586.667 398 586.5 397.667 586C397.5 585.833 385.167 574.667 372.833 573.167C360.833 571.667 353.5 576.833 353.5 577C352.5 577.667 351 577.5 350.333 576.5C349.667 575.5 349.833 574 350.833 573.333C351.167 573 359.667 566.833 373.5 568.667C387.167 570.5 400.167 582.167 400.833 582.667C401.833 583.5 401.833 585 401 585.833C400.333 586.333 399.667 586.667 399.167 586.667Z" fill="#C5DFFF"/>
<path d="M544.667 539.333C544.667 539.333 541.5 550.167 531.5 556.667C521.5 563.167 515.833 563.833 515.833 563.833C515.833 563.833 509.333 562.833 509.333 558.667C509.333 558.5 509.333 558.333 509.333 558.167C509.667 553.667 512.833 549.667 512.833 549.667C512.833 549.667 521.333 548.167 526 545.833C530.667 543.5 535.667 536 539.333 535.167C541.167 534.833 542.333 535.667 543.333 536.833C544.333 538 544.667 539.333 544.667 539.333Z" fill="#E1ECFF"/>
<path d="M544.667 539.333C544.667 539.333 541.5 550.167 531.5 556.667C521.5 563.167 515.833 563.833 515.833 563.833C515.833 563.833 509.333 562.833 509.333 558.667C513.833 558.333 524.5 557 532 551C538.167 546.167 541.667 540.333 543.333 536.667C544.333 538 544.667 539.333 544.667 539.333Z" fill="#C5DFFF"/>
<path d="M538.5 538.5C532.5 546.667 525.667 549.833 520 551.833C514.333 553.833 510.5 553 510.5 553C510.5 553 507.5 550.167 508 546.667C508.167 544.667 509.5 542.5 513 540.5C513 540.5 522.5 539.333 528.5 527.667C534.5 516 532 514.833 533.5 512.5C534.5 510.833 538.167 511 540.667 512.5C541.833 513.167 542.833 514.333 543.167 515.667C544.667 519.833 544.5 530.333 538.5 538.5Z" fill="#E1ECFF"/>
<path d="M538.5 538.5C532.5 546.667 525.667 549.833 520 551.833C514.333 553.833 510.5 553 510.5 553C510.5 553 507.5 550.167 508 546.667C514.167 546.333 526.833 544.667 533 535.5C539.167 526.5 540.5 517 540.667 512.5C541.833 513.167 542.833 514.333 543.167 515.667C544.667 519.833 544.5 530.333 538.5 538.5Z" fill="#C5DFFF"/>
<path d="M527.333 533.333C521.667 541 515.167 544.167 509.667 546C504.333 547.833 500.667 547 500.667 547C500.667 547 497.833 544.333 498.333 541C498.5 539.167 499.833 537 503.167 535.167C503.167 535.167 512.167 534.167 517.833 523C523.5 512 521.167 510.833 522.5 508.5C523.5 507 526.833 507 529.333 508.5C530.5 509.167 531.333 510.167 531.833 511.5C533.167 515.667 533 525.667 527.333 533.333Z" fill="#E1ECFF"/>
<path d="M527.333 533.333C521.667 541 515.167 544.167 509.667 546C504.333 547.833 500.667 547 500.667 547C500.667 547 497.833 544.333 498.333 541C504.167 540.667 516.167 539.167 522.167 530.5C528 522 529.167 513 529.5 508.667C530.667 509.333 531.5 510.333 532 511.667C533.167 515.667 533 525.667 527.333 533.333Z" fill="#C5DFFF"/>
<path d="M522.833 548.167C523 553 521.833 557 520.5 560C518.666 563.833 516.667 565.833 516.667 565.833C516.667 565.833 474.5 580.667 430.167 543.667C407.333 524.667 389 499.833 376.667 480.333C365 461.833 358.5 448 358.5 448C358.5 448 355 437.167 361.5 427.833C363.5 424.833 366.5 422 371.167 419.667C379 415.667 385.5 415.333 390.667 416.667C399.333 418.833 404.167 425.333 404.167 425.333C404.167 425.333 410.667 439.667 420.333 457.333C431.667 477.833 447.333 502.833 462.333 514.5C490.167 536.167 513.333 527.833 513.333 527.833C513.333 527.833 515.833 530.333 518.333 534.167C520.167 537.667 522.667 542.667 522.833 548.167Z" fill="#E1ECFF"/>
<path d="M419.833 457C416.333 462.5 409.5 470.667 396.833 475.333C388.667 478.5 381.5 479.667 376.333 480.167C364.667 461.667 358.167 447.833 358.167 447.833C358.167 447.833 352.167 429 370.667 419.333C391.5 408.5 403.667 425 403.667 425C403.667 425 410.167 439.5 419.833 457Z" fill="#C5DFFF"/>
<path d="M520.333 559.833C518.5 563.666 516.5 565.666 516.5 565.666C516.5 565.666 474.333 580.5 430 543.5C407.167 524.5 388.833 499.667 376.5 480.167C364.833 461.667 358.333 447.833 358.333 447.833C358.333 447.833 354.833 437 361.333 427.667C366.833 440.167 390.333 491.166 420.167 520.5C454.333 554 472.833 558.167 505.667 559.5C511 559.667 516 559.833 520.333 559.833Z" fill="#C5DFFF"/>
<path d="M517.833 534C509.333 536.5 497.5 538.333 485.167 534.5C462.167 527.333 443.333 512.833 424.833 485C409.667 462 395 428 390.333 416.5C399 418.667 403.833 425.167 403.833 425.167C403.833 425.167 410.333 439.5 420 457.167C431.333 477.667 447 502.667 462 514.333C489.833 536 513 527.667 513 527.667C513 527.667 515.333 530 517.833 534Z" fill="#F8FBFF"/>
<path d="M402.333 507.833C398.167 507.833 395.5 506.833 395.333 506.833C394.167 506.333 393.5 505 394 503.833C394.5 502.667 395.833 502 397 502.5C397.333 502.667 405.167 505.333 415.667 499.667C426.167 493.833 428.667 483.5 428.667 483.5C429 482.333 430.167 481.5 431.333 481.833C432.5 482.167 433.333 483.333 433 484.5C432.833 485 430.167 496.833 417.667 503.667C411.833 507 406.333 507.833 402.333 507.833Z" fill="#C5DFFF"/>
<path d="M434.167 545.167C432.833 545.167 431.833 544.167 431.833 542.833C431.833 541.5 432.833 540.5 434.167 540.5C434.333 540.5 444.667 540.333 450.5 533.167C456.5 525.833 455.333 515.5 455.333 515.333C455.167 514 456.167 513 457.333 512.833C458.5 512.667 459.667 513.667 459.833 514.833C459.833 515.333 461.167 527.167 454 536C446.833 545.167 434.667 545.167 434.167 545.167Z" fill="#C5DFFF"/>
<path d="M470.833 564.667C470 564.667 469 564.167 468.667 563.167C468.167 562 468.833 560.667 470 560.167C470.167 560.167 479.5 556.333 482 546.167C484.5 535.833 481 529.833 480.833 529.667C480.167 528.667 480.5 527.167 481.5 526.5C482.5 525.833 484 526.167 484.667 527.167C484.833 527.5 489.5 535 486.333 547.167C483.167 559.667 472 564.167 471.5 564.333C471.333 564.667 471.167 564.667 470.833 564.667Z" fill="#C5DFFF"/>
<path d="M421.167 437C421.167 437 420.833 439 419.667 442C417.333 447.667 411.833 457 399.333 465.167C380 477.667 362.833 472.333 362.833 472.333C362.833 472.333 350.5 456.167 348 433.833C346.5 421 355 411 366 406.167C374.167 402.667 383.667 402 391.333 405.333C409.5 413.5 421.167 437 421.167 437Z" fill="#1C3177"/>
<path d="M421.167 437C421.167 437 420.833 439 419.667 442C419.667 441.833 419.5 441.833 419.5 441.667C404 421.167 391.833 417 391.833 417C391.833 417 387.333 427.667 372.5 421.5C362.167 417.333 364 410 366.167 406.167C374.333 402.667 383.833 402 391.5 405.333C409.5 413.5 421.167 437 421.167 437Z" fill="#384D89"/>
<path d="M218.667 348.833C215.5 348.333 212.5 350.333 211.833 353.333C210.333 359.667 208 370.5 207 378.833C206.167 385.833 205.833 391.667 205.667 395.667C205.5 398.5 207.667 401.167 210.5 401.667C213.833 402.167 216.833 399.833 217.167 396.5C217.5 391.333 218.333 383.5 220.167 374.5C221.833 366 223 360 223.833 356C224.333 352.667 222 349.5 218.667 348.833Z" fill="#1C3177"/>
<path d="M189.833 366.667C190.667 363.333 194.167 361.5 197.333 363C202.333 365.167 209.667 368.333 216.667 370.833C223.833 373.333 230.5 375.833 234.667 377.5C237.5 378.5 239 381.5 238.333 384.5C237.5 387.667 234.167 389.667 231 388.667C225.5 387.167 216.833 384.333 207.667 380.5C199.5 377 194.833 374.333 192 372.667C190.167 371.333 189.333 369 189.833 366.667Z" fill="#1C3177"/>
<path d="M290.333 308.167C286.333 307.5 282.5 310.167 281.5 314.167C279.667 322.5 277 336.5 275.833 347.5C275 356.667 274.5 364.167 274.5 369.333C274.333 373.167 277.167 376.333 280.833 376.833C285.167 377.5 289 374.333 289.333 370C289.667 363.333 290.667 353.167 292.5 341.5C294.333 330.333 295.833 322.5 296.667 317.333C297.667 313 294.667 308.833 290.333 308.167Z" fill="#1C3177"/>
<path d="M253.333 332.166C254.333 327.833 259 325.5 263 327.166C269.5 329.833 279 333.666 288.167 336.833C297.5 340 306.167 343 311.667 345C315.333 346.333 317.5 350.166 316.5 354C315.5 358.166 311.167 360.833 307 359.666C299.833 357.833 288.667 354.5 276.667 349.666C266 345.333 259.833 342 256.333 339.833C254 338 252.667 335 253.333 332.166Z" fill="#1C3177"/>
<path d="M854.5 626.667C854.5 626.667 863 629.166 869.167 636.333C875.333 643.666 876.167 655.5 876.167 655.5L909.833 639.833C909.833 639.833 892.833 646.333 887.167 635C881.5 623.667 900.333 605.667 900.333 605.667C900.333 605.667 879.5 622.667 871.333 620.167C863.167 617.667 861.833 607.5 861.833 607.5L854.5 626.667Z" fill="#FEC272"/>
<path d="M822.667 622.833L828.667 623L838 554.666L816.833 550.667L822.667 622.833Z" fill="#D2E9FF"/>
<path d="M837.333 623.166L851.333 559.167L871.5 569L841 624.833L837.333 623.166Z" fill="#D2E9FF"/>
<path d="M170.333 300.167L166.833 307.833L93.6667 285.333L103.5 256.5L170.333 300.167Z" fill="#FEC272"/>
<path d="M181.333 274.833L174.833 284.167L92.1667 221.167L115 197.333L181.333 274.833Z" fill="#FEC272"/>
</g>
<defs>
<clipPath id="clip0_102_15002">
<rect width="1000" height="1000" rx="50" fill="white"/>
</clipPath>
</defs>
</svg>
