<svg width="48" height="48" viewBox="0 0 48 48" fill="none" xmlns="http://www.w3.org/2000/svg">
<path fill-rule="evenodd" clip-rule="evenodd" d="M24 15.5C24.5523 15.5 25 15.9477 25 16.5V17.5C25 18.0523 24.5523 18.5 24 18.5C23.4477 18.5 23 18.0523 23 17.5V16.5C23 15.9477 23.4477 15.5 24 15.5ZM24 26C25.1046 26 26 25.1046 26 24C26 22.8954 25.1046 22 24 22C22.8954 22 22 22.8954 22 24C22 25.1046 22.8954 26 24 26ZM24 28C26.2091 28 28 26.2091 28 24C28 21.7909 26.2091 20 24 20C21.7909 20 20 21.7909 20 24C20 26.2091 21.7909 28 24 28ZM25 30.5C25 29.9477 24.5523 29.5 24 29.5C23.4477 29.5 23 29.9477 23 30.5V31.5C23 32.0523 23.4477 32.5 24 32.5C24.5523 32.5 25 32.0523 25 31.5V30.5ZM32.5 24C32.5 24.5523 32.0523 25 31.5 25H30.5C29.9477 25 29.5 24.5523 29.5 24C29.5 23.4477 29.9477 23 30.5 23H31.5C32.0523 23 32.5 23.4477 32.5 24ZM17.5 25C18.0523 25 18.5 24.5523 18.5 24C18.5 23.4477 18.0523 23 17.5 23H16.5C15.9477 23 15.5 23.4477 15.5 24C15.5 24.5523 15.9477 25 16.5 25H17.5ZM30.0104 19.4038L29.3033 20.1109C28.9128 20.5014 28.2796 20.5014 27.8891 20.1109C27.4986 19.7204 27.4986 19.0872 27.8891 18.6967L28.5962 17.9896C28.9867 17.5991 29.6199 17.5991 30.0104 17.9896C30.4009 18.3801 30.4009 19.0133 30.0104 19.4038ZM19.4038 30.0104L20.1109 29.3033C20.5014 28.9128 20.5014 28.2796 20.1109 27.8891C19.7204 27.4986 19.0872 27.4986 18.6967 27.8891L17.9896 28.5962C17.5991 28.9867 17.5991 29.6199 17.9896 30.0104C18.3801 30.4009 19.0133 30.4009 19.4038 30.0104ZM28.5962 30.0104L27.8891 29.3033C27.4986 28.9128 27.4986 28.2796 27.8891 27.8891C28.2796 27.4986 28.9128 27.4986 29.3033 27.8891L30.0104 28.5962C30.4009 28.9867 30.4009 29.6199 30.0104 30.0104C29.6199 30.4009 28.9867 30.4009 28.5962 30.0104ZM18.6967 20.1109C19.0872 20.5014 19.7204 20.5014 20.1109 20.1109C20.5014 19.7204 20.5014 19.0872 20.1109 18.6967L19.4038 17.9896C19.0133 17.5991 18.3801 17.5991 17.9896 17.9896C17.5991 18.3801 17.5991 19.0133 17.9896 19.4038L18.6967 20.1109Z" fill="#222222"/>
</svg>
